# xmcd
#
# Track frame offsets:
# 150
# 16570
# 31438
# 47460
# 63610
# 78729
# 95031
# 113584
# 130825
# 144679
# 160202
# 175171
#
# Disc length: 2513 seconds
#
# Revision: 0
# Processed by: cddbd v1.5.2PL0 Copyright (c) Steve Scherf et al.
# Submitted via: Audion 3.0.2 (http://www.panic.com/audion/)
#
DISCID=9a09cf0c
DTITLE=Avril Lavigne - Slipped Away
DYEAR=1900
DGENRE=
TTITLE0=Slipped Away
TTITLE1=Freak Out 
TTITLE2=Fall to Pieces
TTITLE3=Who Knows
TTITLE4=Forgotten
TTITLE5=Nobody's Home
TTITLE6=My Happy Ending
TTITLE7=How Does It Feel
TTITLE8=He Wasn't
TTITLE9=Don't Tell Me
TTITLE10=Together
TTITLE11=Take Me Away
EXTD=
EXTT0=
EXTT1=
EXTT2=
EXTT3=
EXTT4=
EXTT5=
EXTT6=
EXTT7=
EXTT8=
EXTT9=
EXTT10=
EXTT11=
PLAYORDER=
